<?xml version="1.0" encoding="UTF-8" standalone="no"?>
<!-- Generator: Adobe Illustrator 16.0.0, SVG Export Plug-In . SVG Version: 6.00 Build 0)  -->

<svg
   xmlns:dc="http://purl.org/dc/elements/1.1/"
   xmlns:cc="http://creativecommons.org/ns#"
   xmlns:rdf="http://www.w3.org/1999/02/22-rdf-syntax-ns#"
   xmlns:svg="http://www.w3.org/2000/svg"
   xmlns="http://www.w3.org/2000/svg"
   xmlns:sodipodi="http://sodipodi.sourceforge.net/DTD/sodipodi-0.dtd"
   xmlns:inkscape="http://www.inkscape.org/namespaces/inkscape"
   version="1.1"
   id="Ebene_1"
   x="0px"
   y="0px"
   width="737.81598"
   height="100.85087"
   viewBox="-93 -43.338 737.81598 100.85087"
   enable-background="new -93 -43.338 386 180"
   xml:space="preserve"
   inkscape:version="0.91 r13725"
   sodipodi:docname="logo_mobile.svg"><metadata
     id="metadata4949"><rdf:RDF><cc:Work
         rdf:about=""><dc:format>image/svg+xml</dc:format><dc:type
           rdf:resource="http://purl.org/dc/dcmitype/StillImage" /><dc:title></dc:title></cc:Work></rdf:RDF></metadata><defs
     id="defs4947" /><sodipodi:namedview
     pagecolor="#ffffff"
     bordercolor="#666666"
     borderopacity="1"
     objecttolerance="10"
     gridtolerance="10"
     guidetolerance="10"
     inkscape:pageopacity="0"
     inkscape:pageshadow="2"
     inkscape:window-width="1366"
     inkscape:window-height="731"
     id="namedview4945"
     showgrid="false"
     fit-margin-top="0"
     fit-margin-left="0"
     fit-margin-right="0"
     fit-margin-bottom="0"
     inkscape:zoom="2.8284271"
     inkscape:cx="356.83279"
     inkscape:cy="70.792652"
     inkscape:window-x="0"
     inkscape:window-y="18"
     inkscape:window-maximized="0"
     inkscape:current-layer="Ebene_1" /><g
     id="g4911"
     transform="translate(-14.684,4.2518666)"><g
       id="g4913"><path
         d="m -59.415,52.877 c -0.941,0 -1.888,-0.769 -1.888,-1.79 l 0,-66.791 c 0,-0.895 -0.811,-1.535 -1.754,-1.535 l -13.5,0 c -0.813,0 -1.759,-1.024 -1.759,-1.793 l 0,-22.77 c 0,-0.77 0.405,-1.281 1.213,-1.281 l 57.793,0 c 0.945,0 1.752,0.511 1.752,1.533 l 0,22.52 c 0,1.023 -0.807,1.793 -1.888,1.793 l -13.504,0 c -0.944,0 -1.619,0.64 -1.619,1.792 l 0,66.659 c 0,0.897 -0.809,1.662 -1.891,1.662 l -22.955,0 0,0.001 z"
         id="path4915"
         inkscape:connector-curvature="0"
         style="fill:#f68d5c" /><path
         d="m 21.049,-43.082 c 0.946,0 1.619,0.766 1.755,1.66 l 18.5,91.483 c 0.27,1.406 -0.405,2.815 -1.892,2.815 l -21.873,0 c -0.81,0 -1.62,-0.515 -1.757,-1.281 L 13.081,32.404 C 12.946,31.764 12.407,31.38 11.733,31.38 l -7.293,0 c -0.538,0 -1.077,0.515 -1.212,1.281 L 0.661,51.466 c -0.135,0.896 -1.081,1.407 -1.755,1.407 l -22.282,0 c -1.214,0 -1.89,-0.894 -1.619,-2.178 L -6.9,-41.552 c 0.133,-0.641 0.806,-1.533 1.619,-1.533 l 26.33,0.003 0,0 z M 9.167,5.153 C 8.895,3.361 8.627,2.209 8.219,2.209 7.816,2.209 7.543,3.104 7.276,5.153 L 5.52,17.308 c -0.133,0.641 0.137,1.279 0.811,1.279 4.32,0 4.726,0 4.59,-1.149 L 9.167,5.153 Z"
         id="path4917"
         inkscape:connector-curvature="0"
         style="fill:#f68d5c" /><path
         d="m 67.345,-43.082 c 0.809,0 1.485,0.511 1.485,1.406 l 0,64.996 c 0,1.664 0.675,2.815 2.295,2.815 1.62,0 2.297,-1.151 2.297,-2.69 l 0,-65.246 c 0,-0.643 0.673,-1.281 1.484,-1.281 l 22.819,0 c 0.679,0 1.486,0.38 1.486,1.281 l 0,68.575 c 0,13.564 -10.259,26.103 -28.083,26.103 -17.957,0 -28.083,-12.669 -28.083,-26.103 l 0,-68.45 c 0,-0.895 0.537,-1.406 1.351,-1.406 l 22.949,0 z"
         id="path4919"
         inkscape:connector-curvature="0"
         style="fill:#f68d5c" /><path
         d="m 140.107,-12.121 c -0.811,0 -1.35,-0.381 -1.619,-1.407 -0.809,-3.069 -2.159,-4.607 -4.048,-4.607 -1.354,0 -2.024,1.026 -2.024,2.304 0,4.097 6.342,8.703 14.44,13.945 8.776,5.628 15.396,14.842 15.396,24.311 0,17.145 -10.801,30.836 -28.486,30.836 -20.526,0 -29.979,-14.078 -29.979,-34.549 0,-0.641 0.539,-1.277 1.621,-1.277 l 18.63,-0.896 c 0.948,0 1.487,0.513 1.625,1.662 0.531,5.12 2.837,10.62 6.076,10.62 1.887,0 3.098,-1.149 3.098,-4.092 0,-3.071 -7.564,-8.701 -16.605,-15.608 -9.05,-6.911 -13.507,-16.509 -13.507,-25.207 0,-13.052 10.264,-27.251 28.356,-27.251 18.092,0 29.299,13.434 29.299,28.655 0,0.898 -0.532,1.663 -1.619,1.663 l -20.654,0.898 z"
         id="path4921"
         inkscape:connector-curvature="0"
         style="fill:#f68d5c" /><path
         d="m 166.157,-6.493 c 0,-23.284 11.471,-36.845 29.968,-36.845 19.716,0 30.114,15.862 30.114,34.289 0,3.455 0,3.837 -1.211,3.837 l -24.981,0.896 c -1.221,0 -2.433,-1.024 -2.433,-2.56 l 0,-8.062 c 0,-1.79 -1.082,-2.43 -2.162,-2.43 -1.078,0 -2.158,0.895 -2.158,2.302 l 0,39.791 c 0,1.278 0.946,2.175 2.158,2.175 1.355,0 2.162,-1.024 2.162,-2.302 l 0,-12.92 c 0,-0.768 0.546,-1.919 1.62,-1.794 l 25.52,0.897 c 0.68,0 1.079,0.51 1.079,1.022 0,30.833 -13.364,41.458 -30.376,41.458 -18.767,0 -29.296,-15.994 -29.296,-34.291 l -0.004,-25.463 0,0 z"
         id="path4923"
         inkscape:connector-curvature="0"
         style="fill:#f68d5c" /><path
         d="m 230.811,-41.801 c 0,-0.77 0.538,-1.281 1.354,-1.281 l 22.687,0 c 0.807,0 1.211,0.38 1.211,1.021 l 0,33.522 c 0,0.512 0.398,0.895 0.946,0.895 l 2.693,0 c 0.685,0 1.222,-0.511 1.222,-0.895 l 0,-33.391 c 0,-0.64 0.397,-1.151 1.079,-1.151 l 22.811,0 c 0.816,0 1.359,0.511 1.359,1.151 l 0,93.396 c 0,0.641 -0.405,1.407 -1.085,1.407 l -22.955,0 c -0.673,0 -1.211,-0.767 -1.211,-1.407 l 0,-33.395 c 0,-0.511 -0.271,-1.021 -0.812,-1.021 l -3.105,0 c -0.675,0 -0.946,0.51 -0.946,1.021 l 0,33.521 c 0,0.641 -0.54,1.281 -1.211,1.281 l -22.278,0 c -0.947,0 -1.764,-0.894 -1.764,-1.918 l 0,-92.756 0.005,0 z"
         id="path4925"
         inkscape:connector-curvature="0"
         style="fill:#f68d5c" /></g><g
       id="g4927"><g
         id="g4929"><path
           d="m 397.012,-45.313447 c 0.938,0 1.604,0.766 1.736,1.659 l 18.308,91.359 c 0.269,1.406 -0.399,2.808 -1.871,2.808 l -21.648,0 c -0.799,0 -1.604,-0.509 -1.739,-1.271 l -2.669,-19.169 c -0.132,-0.637 -0.667,-1.024 -1.336,-1.024 l -7.216,0 c -0.535,0 -1.069,0.514 -1.201,1.277 l -2.538,18.786 c -0.135,0.893 -1.068,1.405 -1.738,1.405 l -22.056,0 c -1.198,0 -1.868,-0.894 -1.603,-2.174 l 17.909,-92.123 c 0.133,-0.638 0.799,-1.532 1.603,-1.532 l 26.059,-10e-4 0,0 z M 385.251,2.8545534 c -0.269,-1.79 -0.534,-2.93800001 -0.935,-2.93800001 -0.401,0 -0.67,0.90100005 -0.936,2.93800001 l -1.739,12.1439996 c -0.131,0.634 0.136,1.274 0.801,1.274 4.279,0 4.682,0 4.547,-1.153 L 385.251,2.8545534 Z"
           id="path4931"
           inkscape:connector-curvature="0"
           style="fill:#f4d27a" /><path
           d="m 442.857,-45.313447 c 0.799,0 1.467,0.511 1.467,1.404 l 0,64.906 c 0,1.666 0.67,2.81 2.275,2.81 1.603,0 2.271,-1.144 2.271,-2.685 l 0,-65.156 c 0,-0.643 0.667,-1.279 1.469,-1.279 l 22.588,0 c 0.667,0 1.471,0.383 1.471,1.279 l 0,68.482 c 0,13.544 -10.158,26.065 -27.795,26.065 -17.774,0 -27.795,-12.65 -27.795,-26.065 l 0,-68.357 c 0,-0.894 0.533,-1.404 1.336,-1.404 l 22.713,0 z"
           id="path4933"
           inkscape:connector-curvature="0"
           style="fill:#f4d27a" /><path
           d="m 514.896,-14.393447 c -0.807,0 -1.331,-0.381 -1.605,-1.405 -0.8,-3.066 -2.139,-4.6 -4.013,-4.6 -1.333,0 -1.998,1.021 -1.998,2.298 0,4.092 6.283,8.6880004 14.294,13.9310004 8.688,5.624 15.234,14.8189996 15.234,24.2709996 0,17.126 -10.693,30.796 -28.195,30.796 -20.313,0 -29.668,-14.055 -29.668,-34.499 0,-0.636 0.537,-1.277 1.606,-1.277 l 18.441,-0.888 c 0.929,0 1.466,0.512 1.606,1.652 0.531,5.111 2.805,10.602 6.01,10.602 1.87,0 3.076,-1.147 3.076,-4.084 0,-3.062 -7.487,-8.687 -16.444,-15.5839996 -8.95,-6.90600001 -13.36,-16.489 -13.36,-25.1760004 0,-13.032 10.162,-27.216 28.062,-27.216 17.907,0 28.996,13.417 28.996,28.625 0,0.896 -0.523,1.656 -1.599,1.656 l -20.443,0.898 z"
           id="path4935"
           inkscape:connector-curvature="0"
           style="fill:#f4d27a" /><path
           d="m 540.692,-8.7694466 c 0,-23.2570004 11.356,-36.8010004 29.666,-36.8010004 19.51,0 29.801,15.845 29.801,34.248 0,3.4460004 0,3.8310004 -1.199,3.8310004 l -24.722,0.893 c -1.209,0 -2.411,-1.017 -2.411,-2.554 l 0,-8.0500004 c 0,-1.786 -1.068,-2.427 -2.131,-2.427 -1.07,0 -2.142,0.89 -2.142,2.296 l 0,39.741 c 0,1.28 0.928,2.17 2.142,2.17 1.33,0 2.131,-1.024 2.131,-2.294 l 0,-12.9069996 c 0,-0.767 0.533,-1.914 1.604,-1.789 l 25.254,0.889 c 0.678,0 1.072,0.517 1.072,1.025 0,30.7919996 -13.23,41.3989996 -30.062,41.3989996 -18.584,0 -29.002,-15.977 -29.002,-34.247 l 0,-25.4229996 -10e-4,0 z"
           id="path4937"
           inkscape:connector-curvature="0"
           style="fill:#f4d27a" /><path
           d="m 604.706,-44.034447 c 0,-0.769 0.535,-1.279 1.338,-1.279 l 22.454,0 c 0.802,0 1.202,0.383 1.202,1.022 l 0,33.474 c 0,0.511 0.396,0.8970004 0.93,0.8970004 l 2.679,0 c 0.664,0 1.199,-0.5130004 1.199,-0.8970004 l 0,-33.347 c 0,-0.638 0.402,-1.149 1.07,-1.149 l 22.586,0 c 0.803,0 1.336,0.511 1.336,1.149 l 0,93.277 c 0,0.637 -0.404,1.401 -1.072,1.401 l -22.724,0 c -0.666,0 -1.2,-0.761 -1.2,-1.401 l 0,-33.35 c 0,-0.505 -0.268,-1.018 -0.804,-1.018 l -3.072,0 c -0.666,0 -0.928,0.517 -0.928,1.018 l 0,33.478 c 0,0.633 -0.534,1.271 -1.206,1.271 l -22.054,0 c -0.932,0 -1.736,-0.89 -1.736,-1.912 l 0,-92.634 0.002,0 z"
           id="path4939"
           inkscape:connector-curvature="0"
           style="fill:#f4d27a" /></g><g
         id="g4941"><path
           d="m 308.074,-47.265447 c 11.583,-1.892 26.784,4.459 29.261,19.907 1.092,6.843 1.787,19.5900004 -10.432,23.4070004 l 0.041,0.258 c 16.771,1.809 18.087,10.033 20.159,22.9589996 0.245,1.518 1.145,2.927 4.224,3.584 0.715,0.281 1.389,1.083 1.469,1.587 2.761,17.223 -10.237,20.385 -14.583,21.092 -9.481,1.554 -16.809,-3.742 -18.717,-15.647 l -3.127,-19.499 c -0.648,-4.0559996 -2.82,-5.7729996 -4.265,-5.5369996 -0.791,0.124 -0.82,0.776 -0.676,1.665 l 6.497,40.5299996 c 0.12,0.758 -0.413,1.62 -1.336,1.768 l -22.51,3.684 c -0.919,0.146 -1.678,-0.385 -1.842,-1.39 l -14.715,-91.813 c -0.146,-0.883 0.413,-1.625 1.2,-1.753 l 29.352,-4.802 z m 1.184,40.2230004 c 0.143,0.885 0.444,1.095 1.102,0.985 3.159,-0.511 2.59,-4.0580004 1.655,-9.8820004 -0.465,-2.917 -2.572,-4.26 -3.76,-4.064 -0.655,0.105 -0.991,0.55 -0.87,1.314 l 1.873,11.6470004 z"
           id="path4943"
           inkscape:connector-curvature="0"
           style="fill:#f4d27a" /></g></g></g></svg>