<svg version="1.1" id="Ebene_1" xmlns="http://www.w3.org/2000/svg" xmlns:xlink="http://www.w3.org/1999/xlink" x="0px" y="0px"
	 width="386px" height="180px" viewBox="-93 -43.338 386 180" enable-background="new -93 -43.338 386 180" xml:space="preserve">
<g>
	<g>
		<path class="tausch" d="M-59.415,52.877c-0.941,0-1.888-0.769-1.888-1.79v-66.791c0-0.895-0.811-1.535-1.754-1.535h-13.5
			c-0.813,0-1.759-1.024-1.759-1.793v-22.77c0-0.77,0.405-1.281,1.213-1.281h57.793c0.945,0,1.752,0.511,1.752,1.533v22.52
			c0,1.023-0.807,1.793-1.888,1.793h-13.504c-0.944,0-1.619,0.64-1.619,1.792v66.659c0,0.897-0.809,1.662-1.891,1.662H-59.415
			L-59.415,52.877z"/>
		<path class="tausch" d="M21.049-43.082c0.946,0,1.619,0.766,1.755,1.66l18.5,91.483c0.27,1.406-0.405,2.815-1.892,2.815H17.539
			c-0.81,0-1.62-0.515-1.757-1.281l-2.701-19.191c-0.135-0.64-0.674-1.024-1.348-1.024H4.44c-0.538,0-1.077,0.515-1.212,1.281
			L0.661,51.466c-0.135,0.896-1.081,1.407-1.755,1.407h-22.282c-1.214,0-1.89-0.894-1.619-2.178L-6.9-41.552
			c0.133-0.641,0.806-1.533,1.619-1.533L21.049-43.082L21.049-43.082z M9.167,5.153c-0.272-1.792-0.54-2.944-0.948-2.944
			c-0.403,0-0.676,0.895-0.943,2.944L5.52,17.308c-0.133,0.641,0.137,1.279,0.811,1.279c4.32,0,4.726,0,4.59-1.149L9.167,5.153z"/>
		<path class="tausch" d="M67.345-43.082c0.809,0,1.485,0.511,1.485,1.406V23.32c0,1.664,0.675,2.815,2.295,2.815
			s2.297-1.151,2.297-2.69v-65.246c0-0.643,0.673-1.281,1.484-1.281h22.819c0.679,0,1.486,0.38,1.486,1.281v68.575
			c0,13.564-10.259,26.103-28.083,26.103c-17.957,0-28.083-12.669-28.083-26.103v-68.45c0-0.895,0.537-1.406,1.351-1.406H67.345z"/>
		<path class="tausch" d="M140.107-12.121c-0.811,0-1.35-0.381-1.619-1.407c-0.809-3.069-2.159-4.607-4.048-4.607
			c-1.354,0-2.024,1.026-2.024,2.304c0,4.097,6.342,8.703,14.44,13.945c8.776,5.628,15.396,14.842,15.396,24.311
			c0,17.145-10.801,30.836-28.486,30.836c-20.526,0-29.979-14.078-29.979-34.549c0-0.641,0.539-1.277,1.621-1.277l18.63-0.896
			c0.948,0,1.487,0.513,1.625,1.662c0.531,5.12,2.837,10.62,6.076,10.62c1.887,0,3.098-1.149,3.098-4.092
			c0-3.071-7.564-8.701-16.605-15.608c-9.05-6.911-13.507-16.509-13.507-25.207c0-13.052,10.264-27.251,28.356-27.251
			s29.299,13.434,29.299,28.655c0,0.898-0.532,1.663-1.619,1.663L140.107-12.121z"/>
		<path class="tausch" d="M166.157-6.493c0-23.284,11.471-36.845,29.968-36.845c19.716,0,30.114,15.862,30.114,34.289
			c0,3.455,0,3.837-1.211,3.837l-24.981,0.896c-1.221,0-2.433-1.024-2.433-2.56v-8.062c0-1.79-1.082-2.43-2.162-2.43
			c-1.078,0-2.158,0.895-2.158,2.302v39.791c0,1.278,0.946,2.175,2.158,2.175c1.355,0,2.162-1.024,2.162-2.302V11.678
			c0-0.768,0.546-1.919,1.62-1.794l25.52,0.897c0.68,0,1.079,0.51,1.079,1.022c0,30.833-13.364,41.458-30.376,41.458
			c-18.767,0-29.296-15.994-29.296-34.291L166.157-6.493L166.157-6.493z"/>
		<path class="tausch" d="M230.811-41.801c0-0.77,0.538-1.281,1.354-1.281h22.687c0.807,0,1.211,0.38,1.211,1.021v33.522
			c0,0.512,0.398,0.895,0.946,0.895h2.693c0.685,0,1.222-0.511,1.222-0.895V-41.93c0-0.64,0.397-1.151,1.079-1.151h22.811
			c0.816,0,1.359,0.511,1.359,1.151v93.396c0,0.641-0.405,1.407-1.085,1.407h-22.955c-0.673,0-1.211-0.767-1.211-1.407V18.071
			c0-0.511-0.271-1.021-0.812-1.021h-3.105c-0.675,0-0.946,0.51-0.946,1.021v33.521c0,0.641-0.54,1.281-1.211,1.281H232.57
			c-0.947,0-1.764-0.894-1.764-1.918v-92.756H230.811z"/>
	</g>
	<g>
		<g>
			<path class="rausch" d="M28.512,38.833c0.938,0,1.604,0.766,1.736,1.659l18.308,91.359c0.269,1.406-0.399,2.808-1.871,2.808
				H25.037c-0.799,0-1.604-0.509-1.739-1.271l-2.669-19.169c-0.132-0.637-0.667-1.024-1.336-1.024h-7.216
				c-0.535,0-1.069,0.514-1.201,1.277l-2.538,18.786c-0.135,0.893-1.068,1.405-1.738,1.405h-22.056
				c-1.198,0-1.868-0.894-1.603-2.174L0.85,40.366c0.133-0.638,0.799-1.532,1.603-1.532L28.512,38.833L28.512,38.833z
				 M16.751,87.001c-0.269-1.79-0.534-2.938-0.935-2.938c-0.401,0-0.67,0.901-0.936,2.938l-1.739,12.144
				c-0.131,0.634,0.136,1.274,0.801,1.274c4.279,0,4.682,0,4.547-1.153L16.751,87.001z"/>
			<path class="rausch" d="M74.357,38.833c0.799,0,1.467,0.511,1.467,1.404v64.906c0,1.666,0.67,2.81,2.275,2.81
				c1.603,0,2.271-1.144,2.271-2.685V40.112c0-0.643,0.667-1.279,1.469-1.279h22.588c0.667,0,1.471,0.383,1.471,1.279v68.482
				c0,13.544-10.158,26.065-27.795,26.065c-17.774,0-27.795-12.65-27.795-26.065V40.237c0-0.894,0.533-1.404,1.336-1.404H74.357z"/>
			<path class="rausch" d="M146.396,69.753c-0.807,0-1.331-0.381-1.605-1.405c-0.8-3.066-2.139-4.6-4.013-4.6
				c-1.333,0-1.998,1.021-1.998,2.298c0,4.092,6.283,8.688,14.294,13.931c8.688,5.624,15.234,14.819,15.234,24.271
				c0,17.126-10.693,30.796-28.195,30.796c-20.313,0-29.668-14.055-29.668-34.499c0-0.636,0.537-1.277,1.606-1.277l18.441-0.888
				c0.929,0,1.466,0.512,1.606,1.652c0.531,5.111,2.805,10.602,6.01,10.602c1.87,0,3.076-1.147,3.076-4.084
				c0-3.062-7.487-8.687-16.444-15.584C115.79,84.06,111.38,74.477,111.38,65.79c0-13.032,10.162-27.216,28.062-27.216
				c17.907,0,28.996,13.417,28.996,28.625c0,0.896-0.523,1.656-1.599,1.656L146.396,69.753z"/>
			<path class="rausch" d="M172.192,75.377c0-23.257,11.356-36.801,29.666-36.801c19.51,0,29.801,15.845,29.801,34.248
				c0,3.446,0,3.831-1.199,3.831l-24.722,0.893c-1.209,0-2.411-1.017-2.411-2.554v-8.05c0-1.786-1.068-2.427-2.131-2.427
				c-1.07,0-2.142,0.89-2.142,2.296v39.741c0,1.28,0.928,2.17,2.142,2.17c1.33,0,2.131-1.024,2.131-2.294V93.523
				c0-0.767,0.533-1.914,1.604-1.789l25.254,0.889c0.678,0,1.072,0.517,1.072,1.025c0,30.792-13.23,41.399-30.062,41.399
				c-18.584,0-29.002-15.977-29.002-34.247V75.377H172.192z"/>
			<path class="rausch" d="M236.206,40.112c0-0.769,0.535-1.279,1.338-1.279h22.454c0.802,0,1.202,0.383,1.202,1.022v33.474
				c0,0.511,0.396,0.897,0.93,0.897h2.679c0.664,0,1.199-0.513,1.199-0.897V39.982c0-0.638,0.402-1.149,1.07-1.149h22.586
				c0.803,0,1.336,0.511,1.336,1.149v93.277c0,0.637-0.404,1.401-1.072,1.401h-22.724c-0.666,0-1.2-0.761-1.2-1.401v-33.35
				c0-0.505-0.268-1.018-0.804-1.018h-3.072c-0.666,0-0.928,0.517-0.928,1.018v33.478c0,0.633-0.534,1.271-1.206,1.271H237.94
				c-0.932,0-1.736-0.89-1.736-1.912V40.112H236.206z"/>
		</g>
		<g>
			<path class="rausch" d="M-60.426,36.881c11.583-1.892,26.784,4.459,29.261,19.907c1.092,6.843,1.787,19.59-10.432,23.407
				l0.041,0.258c16.771,1.809,18.087,10.033,20.159,22.959c0.245,1.518,1.145,2.927,4.224,3.584
				c0.715,0.281,1.389,1.083,1.469,1.587c2.761,17.223-10.237,20.385-14.583,21.092c-9.481,1.554-16.809-3.742-18.717-15.647
				l-3.127-19.499c-0.648-4.056-2.82-5.773-4.265-5.537c-0.791,0.124-0.82,0.776-0.676,1.665l6.497,40.53
				c0.12,0.758-0.413,1.62-1.336,1.768l-22.51,3.684c-0.919,0.146-1.678-0.385-1.842-1.39l-14.715-91.813
				c-0.146-0.883,0.413-1.625,1.2-1.753L-60.426,36.881z M-59.242,77.104c0.143,0.885,0.444,1.095,1.102,0.985
				c3.159-0.511,2.59-4.058,1.655-9.882c-0.465-2.917-2.572-4.26-3.76-4.064c-0.655,0.105-0.991,0.55-0.87,1.314L-59.242,77.104z"/>
		</g>
	</g>
</g>
</svg>
